<?xml version="1.0" standalone="no"?>
<!DOCTYPE svg PUBLIC "-//W3C//DTD SVG 20010904//EN"
 "http://www.w3.org/TR/2001/REC-SVG-20010904/DTD/svg10.dtd">
<svg version="1.0" xmlns="http://www.w3.org/2000/svg"
 width="982.000000pt" height="275.000000pt" viewBox="0 0 982.000000 275.000000"
 preserveAspectRatio="xMidYMid meet">

<g transform="translate(0.000000,275.000000) scale(0.100000,-0.100000)"
fill="#000000" stroke="none">
<path d="M1894 2499 c-18 -20 -19 -51 -19 -994 0 -1134 -17 -1000 141 -1082
236 -123 506 -171 716 -128 85 18 233 88 299 142 92 76 176 202 220 331 10 30
26 106 36 169 15 99 15 131 5 231 -24 243 -81 381 -207 507 -134 135 -297 194
-502 182 -138 -7 -219 -31 -343 -102 l-45 -25 -3 377 c-2 333 -4 379 -19 395
-14 15 -33 18 -138 18 -111 0 -124 -2 -141 -21z m746 -909 c152 -29 257 -128
305 -288 29 -96 40 -227 26 -324 -27 -191 -91 -303 -219 -382 -127 -79 -351
-73 -520 13 l-42 21 0 391 0 391 53 51 c113 110 252 155 397 127z"/>
<path d="M4799 2503 c-12 -13 -14 -195 -17 -1074 -1 -679 1 -1066 8 -1083 l10
-26 133 0 c90 0 137 4 145 12 9 9 12 120 12 437 1 469 7 538 57 637 35 71 107
136 181 165 81 32 227 32 295 1 71 -32 119 -74 150 -130 53 -98 57 -136 57
-633 0 -429 1 -457 18 -472 15 -14 41 -17 143 -17 68 0 131 5 139 10 13 8 15
76 15 512 0 496 0 504 -23 583 -56 192 -180 339 -332 394 -221 80 -480 38
-637 -103 -41 -37 -52 -43 -57 -30 -3 9 -6 195 -6 414 0 385 -1 400 -19 410
-11 5 -73 10 -139 10 -99 0 -122 -3 -133 -17z"/>
<path d="M8209 2503 c-12 -13 -14 -180 -14 -997 0 -1132 -13 -1006 115 -1074
107 -57 248 -107 369 -131 383 -77 700 63 847 374 66 141 79 202 79 400 0 216
-16 296 -93 455 -49 102 -150 203 -252 253 -99 49 -175 68 -293 74 -143 8
-263 -20 -393 -93 -52 -29 -63 -31 -68 -18 -3 9 -6 182 -6 384 0 355 -1 370
-19 380 -11 5 -73 10 -139 10 -99 0 -122 -3 -133 -17z m827 -934 c73 -28 159
-110 195 -189 44 -93 54 -153 54 -310 -1 -121 -4 -157 -23 -216 -42 -134 -120
-227 -240 -282 -51 -24 -69 -26 -177 -27 -121 0 -175 10 -262 46 -88 37 -83
10 -83 434 l0 375 40 44 c131 142 322 190 496 125z"/>
<path d="M3733 2315 c-23 -16 -23 -19 -23 -235 0 -120 -3 -225 -6 -234 -5 -13
-25 -16 -119 -16 -154 0 -160 -5 -160 -129 0 -124 1 -125 158 -131 l122 -5 5
-490 c5 -486 6 -491 29 -550 67 -170 194 -245 416 -245 136 0 248 26 361 83
88 45 93 64 44 166 -22 45 -47 84 -55 88 -9 3 -53 -12 -98 -33 -79 -37 -86
-39 -184 -39 -116 0 -143 12 -178 81 -19 37 -20 62 -23 492 l-3 452 238 0
c299 0 283 -7 283 129 0 79 -3 101 -17 112 -12 11 -73 15 -257 19 l-241 5 -5
232 c-4 171 -8 235 -18 245 -9 9 -51 14 -130 16 -95 3 -121 0 -139 -13z"/>
<path d="M830 1849 c-167 -34 -269 -87 -376 -194 -99 -98 -154 -199 -191 -348
-36 -145 -36 -329 0 -474 74 -298 274 -486 572 -539 273 -48 556 38 701 215
83 100 104 161 67 193 -30 27 -161 88 -187 88 -20 0 -34 -14 -65 -59 -80 -117
-179 -176 -315 -187 -236 -20 -406 108 -462 348 -19 81 -19 274 -1 355 36 153
108 253 225 310 75 37 78 38 191 38 106 0 121 -2 177 -28 67 -31 127 -87 177
-163 43 -65 70 -68 163 -18 89 48 104 62 104 94 0 28 -44 104 -92 159 -73 83
-181 155 -272 183 -121 36 -312 48 -416 27z"/>
<path d="M6509 1811 l-24 -19 0 -489 c0 -446 2 -495 19 -563 51 -202 152 -333
312 -407 213 -97 490 -58 653 92 32 30 63 55 68 55 6 0 13 -24 17 -54 12 -110
7 -106 150 -106 114 0 126 2 136 19 7 13 10 262 10 740 0 641 -2 721 -16 735
-24 24 -243 23 -273 -1 -20 -18 -20 -26 -24 -483 -3 -450 -3 -467 -25 -530
-41 -120 -123 -202 -236 -235 -66 -20 -198 -18 -258 3 -111 40 -191 150 -209
290 -4 37 -8 262 -9 500 0 520 16 472 -154 472 -97 0 -117 -3 -137 -19z"/>
</g>
</svg>
